<!--
   Copyright 2023 Sony Corporation
-->

<svg width="24" height="24" viewBox="0 0 24 24" fill="none" xmlns="http://www.w3.org/2000/svg">
<path d="M8 22V11L6 8V2H18V8L16 11V22H8ZM8 5H16V4H8V5ZM16 7H8V7.4L10 10.4V20H14V10.4L16 7.4V7Z" fill="white"/>
<path d="M10.9375 14.0625C11.2292 14.3542 11.5833 14.5 12 14.5C12.4167 14.5 12.7708 14.3542 13.0625 14.0625C13.3542 13.7708 13.5 13.4167 13.5 13C13.5 12.5833 13.3542 12.2292 13.0625 11.9375C12.7708 11.6458 12.4167 11.5 12 11.5C11.5833 11.5 11.2292 11.6458 10.9375 11.9375C10.6458 12.2292 10.5 12.5833 10.5 13C10.5 13.4167 10.6458 13.7708 10.9375 14.0625Z" fill="white"/>
</svg>
