<svg width="24" height="24" viewBox="0 0 24 24" fill="none" xmlns="http://www.w3.org/2000/svg">
<path fill-rule="evenodd" clip-rule="evenodd" d="M11 1H13V5H11V1ZM11 23V19H13V23H11ZM1 11V13H5V11H1ZM23 13H19V11H23V13ZM5.63602 4.22183L4.2218 5.63605L6.34312 7.75737L7.75734 6.34315L5.63602 4.22183ZM16.2426 17.6569L17.6568 16.2426L19.7781 18.364L18.3639 19.7782L16.2426 17.6569ZM4.22183 18.364L5.63605 19.7782L7.75737 17.6569L6.34315 16.2427L4.22183 18.364ZM17.6569 7.75739L16.2426 6.34317L18.364 4.22185L19.7782 5.63607L17.6569 7.75739ZM8.4625 15.5375C9.4375 16.5125 10.6167 17 12 17C13.3833 17 14.5625 16.5125 15.5375 15.5375C16.5125 14.5625 17 13.3833 17 12C17 10.6167 16.5125 9.4375 15.5375 8.4625C14.5625 7.4875 13.3833 7 12 7C10.6167 7 9.4375 7.4875 8.4625 8.4625C7.4875 9.4375 7 10.6167 7 12C7 13.3833 7.4875 14.5625 8.4625 15.5375Z" fill="white"/>
</svg>
