<!--
   Copyright 2023 Sony Corporation
-->

<svg width="24" height="24" viewBox="0 0 24 24" fill="none" xmlns="http://www.w3.org/2000/svg">
<path fill-rule="evenodd" clip-rule="evenodd" d="M8 11V22H16V11L18 8V2H6V8L8 11ZM16 5H8V4H16V5ZM12 14.5C11.5833 14.5 11.2292 14.3542 10.9375 14.0625C10.6458 13.7708 10.5 13.4167 10.5 13C10.5 12.5833 10.6458 12.2292 10.9375 11.9375C11.2292 11.6458 11.5833 11.5 12 11.5C12.4167 11.5 12.7708 11.6458 13.0625 11.9375C13.3542 12.2292 13.5 12.5833 13.5 13C13.5 13.4167 13.3542 13.7708 13.0625 14.0625C12.7708 14.3542 12.4167 14.5 12 14.5Z" fill="white"/>
</svg>
