<svg width="24" height="24" viewBox="0 0 24 24" fill="none" xmlns="http://www.w3.org/2000/svg">
<path d="M9 22V14.4L4.4 19L3 17.6L8.6 12L3 6.4L4.4 5L9 9.6V2H10L15.7 7.7L11.4 12L15.7 16.3L10 22H9ZM11 9.6L12.9 7.7L11 5.85V9.6ZM11 18.15L12.9 16.3L11 14.4V18.15Z" fill="white"/>
<path d="M19.4 19.45C19.4 19.2167 19.4042 18.9875 19.4125 18.7625C19.4208 18.5375 19.4833 18.325 19.6 18.125C19.7667 17.8417 19.9792 17.6 20.2375 17.4C20.4958 17.2 20.7167 16.9667 20.9 16.7C20.95 16.6333 21.0083 16.4417 21.075 16.125C21.075 15.8417 20.9667 15.6083 20.75 15.425C20.5333 15.2417 20.2833 15.15 20 15.15C19.7167 15.15 19.4667 15.2417 19.25 15.425C19.0333 15.6083 18.8833 15.8417 18.8 16.125L17.7 15.65C17.8667 15.15 18.1583 14.75 18.575 14.45C18.9917 14.15 19.4667 14 20 14C20.6167 14 21.1542 14.2 21.6125 14.6C22.0708 15 22.3 15.5 22.3 16.1C22.3 16.2833 22.275 16.4542 22.225 16.6125C22.175 16.7708 22.1 16.9167 22 17.05C21.8167 17.3167 21.6 17.5542 21.35 17.7625C21.1 17.9708 20.9 18.2167 20.75 18.5C20.65 18.6833 20.6 19 20.6 19.45H19.4ZM20 22C19.7667 22 19.5667 21.9208 19.4 21.7625C19.2333 21.6042 19.15 21.4083 19.15 21.175C19.15 20.9417 19.2333 20.7417 19.4 20.575C19.5667 20.4083 19.7667 20.325 20 20.325C20.2333 20.325 20.4292 20.4083 20.5875 20.575C20.7458 20.7417 20.825 20.9417 20.825 21.175C20.825 21.4083 20.7458 21.6042 20.5875 21.7625C20.4292 21.9208 20.2333 22 20 22Z" fill="white"/>
</svg>
