<svg width="24" height="24" viewBox="0 0 24 24" fill="none" xmlns="http://www.w3.org/2000/svg">
<path d="M20.3 17.175L18.3 15.175V4H11.15L9.15 6L7.7 4.6L10.3 2H18.3C18.85 2 19.3208 2.19583 19.7125 2.5875C20.1042 2.97917 20.3 3.45 20.3 4V17.175ZM20.8 23.3L6.3 8.8V20H18.3V17.975L20.3 19.975V20C20.3 20.55 20.1042 21.0208 19.7125 21.4125C19.3208 21.8042 18.85 22 18.3 22H6.3C5.75 22 5.27917 21.8042 4.8875 21.4125C4.49583 21.0208 4.3 20.55 4.3 20V8L4.9 7.4L1 3.5L2.425 2.1L22.2 21.875L20.8 23.3Z" fill="white"/>
</svg>
