<svg width="24" height="24" viewBox="0 0 24 24" fill="none" xmlns="http://www.w3.org/2000/svg">
<path d="M14.13 14.13C14.71 13.55 15.01 12.84 15.01 12C15.01 11.17 14.72 10.46 14.13 9.87C13.54 9.28 12.84 8.99 12 8.99V14.99C12.83 14.99 13.54 14.7 14.13 14.11V14.13ZM8.47001 15.54C7.49001 14.56 7.01001 13.39 7.01001 12C7.01001 10.61 7.50001 9.44 8.47001 8.46C9.44001 7.48 10.62 7 12.01 7C13.4 7 14.57 7.49 15.55 8.46C16.53 9.43 17.01 10.61 17.01 12C17.01 13.39 16.52 14.56 15.55 15.54C14.58 16.52 13.4 17 12.01 17C10.62 17 9.45001 16.51 8.47001 15.54Z" fill="white"/>
<path fill-rule="evenodd" clip-rule="evenodd" d="M4.92895 6.34314L6.34317 4.92893L7.75738 6.34314L6.34317 7.75735L4.92895 6.34314ZM13 3L11 3L11 5L13 5L13 3ZM13 19L11 19L11 21L13 21L13 19ZM3 13V11L5 11V13L3 13ZM19 11V13L21 13V11L19 11ZM17.6569 16.2426L16.2427 17.6569L17.6569 19.0711L19.0711 17.6569L17.6569 16.2426ZM6.34314 19.071L4.92893 17.6568L6.34314 16.2426L7.75735 17.6568L6.34314 19.071ZM16.2426 6.34317L17.6569 7.75739L19.0711 6.34317L17.6569 4.92896L16.2426 6.34317Z" fill="white"/>
</svg>
