<svg width="24" height="24" viewBox="0 0 24 24" fill="none" xmlns="http://www.w3.org/2000/svg">
<path d="M21.39 18.4298L19.3924 18.4121L19.3924 15.8312L15.026 20.1976C14.6371 20.5865 14.1657 20.781 13.6118 20.781C13.0579 20.781 12.5865 20.5865 12.1976 20.1976L5.00278 13.0028L7.83121 13.0028L13.6118 18.7834L17.9782 14.417L15.3972 14.417L15.3796 12.4194H21.39V18.4298ZM19.3924 10.4218H16.564L10.7834 4.64124L6.41699 9.00763L8.99793 9.00763L9.01561 11.0052H3.0052V4.9948L5.00278 5.01247L5.00278 7.59341L9.36916 3.22703C9.75807 2.83812 10.2295 2.64367 10.7834 2.64367C11.3373 2.64367 11.8087 2.83812 12.1976 3.22703L19.3924 10.4218Z" fill="white"/>
</svg>
